<?xml version="1.0"?>
<!DOCTYPE svg PUBLIC "-//W3C//DTD SVG 1.0//EN" "http://www.w3.org/TR/2001/REC-SVG-20010904/DTD/svg10.dtd">
<svg xmlns="http://www.w3.org/2000/svg" xmlns:xlink="http://www.w3.org/1999/xlink" xmlns:sodipodi="http://sodipodi.sourceforge.net/DTD/sodipodi-0.dtd" xmlns:inkscape="http://www.inkscape.org/namespaces/inkscape" xmlns:realworld="http://www.rw-designer.com/export-svg" width="512px" height="512px">
  <g inkscape:groupmode="layer" inkscape:label="layer 0">
    <path d="M 429.281 140.957L 429.145 141.031L 429.016 141.113L 428.891 141.199L 428.77 141.293L 428.652 141.395L 428.543 141.5L 428.438 141.609L 428.34 141.727L 428.246 141.848L 428.16 141.973L 428.078 142.105L 428.004 142.238L 427.938 142.375L 427.879 142.52L 427.828 142.66L 427.781 142.809L 427.746 142.957L 427.715 143.105L 427.691 143.258L 427.68 143.41L 427.672 143.563L 427.672 143.715L 427.684 143.871L 427.699 144.023L 427.723 144.172L 427.758 144.324L 427.797 144.469L 427.844 144.617L 427.898 144.758L 427.961 144.898L 428.031 145.035L 428.105 145.168L 428.184 145.289L 499.113 250.563L 434.754 333.898L 98.9453 407.277L 14.3789 210.391L 398.078 176.711L 398.23 176.695L 398.383 176.668L 398.531 176.637L 398.68 176.598L 398.824 176.547L 398.969 176.492L 399.105 176.43L 399.242 176.363L 399.375 176.285L 399.504 176.203L 399.629 176.113L 399.75 176.016L 399.863 175.914L 399.973 175.809L 400.078 175.695L 400.176 175.578L 400.266 175.457L 400.352 175.328L 400.43 175.195L 400.5 175.063L 400.566 174.922L 400.625 174.781L 400.676 174.637L 400.754 174.34L 400.781 174.191L 400.801 174.039L 400.813 173.887L 400.816 173.734L 400.813 173.578L 400.801 173.426L 400.781 173.273L 400.758 173.125L 400.723 172.977L 400.68 172.828L 400.629 172.684L 400.574 172.539L 400.512 172.402L 400.438 172.266L 400.359 172.133L 400.246 171.965L 359.055 115.047L 485.234 111.645C 485.234 111.645 429.281 140.957 429.281 140.957 z" fill="#000000" fill-rule="evenodd" realworld:stroke-pos="1" stroke="#000000" stroke-linejoin="round" stroke-width="8" />
  </g>
</svg>
